<?xml version="1.0" standalone="no"?><!DOCTYPE svg PUBLIC "-//W3C//DTD SVG 1.1//EN" "http://www.w3.org/Graphics/SVG/1.1/DTD/svg11.dtd"><svg class="icon" width="32px" height="32.00px" viewBox="0 0 1024 1024" version="1.1" xmlns="http://www.w3.org/2000/svg"><path fill="#707070" d="M395.815385 512H866.461538c13.784615 0 27.569231-9.846154 29.538462-23.630769l86.646154-303.261539c5.907692-21.661538-9.846154-39.384615-29.538462-39.384615H226.461538l-11.815384-45.292308C208.738462 78.769231 189.046154 64.984615 169.353846 64.984615h-78.769231c-25.6 0-49.230769 19.692308-51.2 45.292308C37.415385 137.846154 61.046154 161.476923 86.646154 161.476923h45.292308l149.661538 506.092308c5.907692 21.661538 23.630769 35.446154 45.292308 35.446154h555.323077c25.6 0 49.230769-19.692308 51.2-45.292308 1.969231-27.569231-21.661538-51.2-47.261539-51.2H397.784615c-21.661538 0-39.384615-13.784615-45.292307-33.476923V571.076923c-9.846154-29.538462 13.784615-59.076923 43.323077-59.076923zM405.661538 878.276923m-78.76923 0a78.769231 78.769231 0 1 0 157.538461 0 78.769231 78.769231 0 1 0-157.538461 0ZM789.661538 878.276923m-78.76923 0a78.769231 78.769231 0 1 0 157.538461 0 78.769231 78.769231 0 1 0-157.538461 0Z" /></svg>